<?xml version="1.0" encoding="utf-8"?>
<!-- Generator: Adobe Illustrator 19.0.0, SVG Export Plug-In . SVG Version: 6.00 Build 0)  -->
<svg version="1.1" id="layer" xmlns="http://www.w3.org/2000/svg" xmlns:xlink="http://www.w3.org/1999/xlink" x="0px" y="0px"
	 viewBox="-153 -46 652 652" style="enable-background:new -153 -46 652 652;" xml:space="preserve">
<style type="text/css">
	.st0{fill:#010202;}
</style>
<path class="st0" d="M-111.4,205.1h29.2l24.7,54.5l25.5-54.5h29.2l19.3,140.2h-37.4l-8.2-57.6h-0.4l-28,58.6l-28-58.6h-0.4
	l-8.2,57.6h-37.4L-111.4,205.1z M29,205.1h75.1l5.6,37H65.6v14.6h28.8v37H65.6v14.6h49.1l-9.5,37H29V205.1z M119.2,205.1h86.4
	l3.7,35.4h-28.6v104.7h-36.6V240.5h-28.6L119.2,205.1z M219.8,205.1h48.1c14.4,0,25.9,3.9,34.4,11.6c8.5,7.7,12.8,18.9,12.8,33.4
	c0,14.5-6.4,26-19.1,34.5l26.9,60.7h-41.3l-24.7-57.8h-0.4v57.8h-36.6V205.1z M256.4,270.9c7.1,0,12.6-1.4,16.4-4.1
	c3.8-2.7,5.6-7.1,5.6-13.2c0-6.1-1.9-10.5-5.6-13.2c-3.8-2.7-9.2-4.1-16.4-4.1V270.9z M463,303.6c-3.8,9-9,16.8-15.7,23.7
	c-6.7,6.8-14.4,12.1-23.2,15.9c-8.8,3.8-17.9,5.6-27.5,5.6c-9.6,0-18.8-1.9-27.5-5.6c-8.8-3.8-16.5-9.1-23.2-15.9
	c-6.7-6.8-11.9-14.7-15.7-23.7c-3.8-9-5.6-18.4-5.6-28.4c0-10,1.9-19.5,5.6-28.4c3.8-9,9-16.8,15.7-23.7
	c6.7-6.8,14.4-12.1,23.2-15.9c8.8-3.8,17.9-5.6,27.5-5.6c9.6,0,18.8,1.9,27.5,5.6c8.8,3.8,16.5,9.1,23.2,15.9
	c6.7,6.8,11.9,14.7,15.7,23.7c3.8,9,5.6,18.4,5.6,28.4C468.6,285.2,466.7,294.7,463,303.6z M428.6,261.7c-1.8-4.3-4.3-8.2-7.5-11.6
	c-3.2-3.4-7-6-11.2-7.9c-4.2-1.9-8.7-2.8-13.3-2.8c-4.7,0-9.1,0.9-13.3,2.7c-4.2,1.8-7.9,4.4-11.1,7.7c-3.2,3.3-5.7,7.1-7.5,11.5
	c-1.8,4.3-2.7,9-2.7,13.9c0,4.8,0.9,9.4,2.7,13.8c1.8,4.4,4.3,8.3,7.5,11.6c3.2,3.3,6.9,5.9,11.1,7.7c4.2,1.8,8.7,2.7,13.3,2.7
	c4.7,0,9.1-0.9,13.3-2.8c4.2-1.9,7.9-4.5,11.2-7.9c3.2-3.4,5.7-7.2,7.5-11.6c1.8-4.3,2.6-8.9,2.6-13.5S430.3,266,428.6,261.7z"/>
</svg>
